<?xml version="1.0" encoding="UTF-8" standalone="no"?>
<svg
   width="39"
   height="39"
   viewBox="0 0 39 39"
   fill="none"
   version="1.1"
   id="svg11"
   sodipodi:docname="colored_icon.svg"
   inkscape:export-filename="colored_icon.png"
   inkscape:export-xdpi="1404.3429"
   inkscape:export-ydpi="1404.3429"
   inkscape:version="1.3 (1:1.3+202307231459+0e150ed6c4)"
   xmlns:inkscape="http://www.inkscape.org/namespaces/inkscape"
   xmlns:sodipodi="http://sodipodi.sourceforge.net/DTD/sodipodi-0.dtd"
   xmlns="http://www.w3.org/2000/svg"
   xmlns:svg="http://www.w3.org/2000/svg">
  <sodipodi:namedview
     id="namedview11"
     pagecolor="#ffffff"
     bordercolor="#000000"
     borderopacity="0.25"
     inkscape:showpageshadow="2"
     inkscape:pageopacity="0.0"
     inkscape:pagecheckerboard="0"
     inkscape:deskcolor="#d1d1d1"
     inkscape:zoom="15.657143"
     inkscape:cx="19.543796"
     inkscape:cy="20.054745"
     inkscape:window-width="3394"
     inkscape:window-height="1352"
     inkscape:window-x="20"
     inkscape:window-y="62"
     inkscape:window-maximized="1"
     inkscape:current-layer="svg11" />
  <path
     d="M 26,1.82348 C 17.5,0.499994 5.51751,-0.372564 1.61602,3.47061 -0.652842,5.70559 -0.11793,9.24029 0.72698,11.8071 1.40044,13.853 3.43285,15 5.58672,15 H 9.37475 L 7.99432,21.0001 C 7.91106,21.002 6.95537,21.0445 5.99999,22 5.00005,23 5.00005,24 5.00005,24 -11.6514,24 33.8135,24 19.0002,24 L 19.4441,21.3365 20.3677,18 H 23 c 1.1045,0 2,-3.8954 2,-5 h 1.5 c 2,0 2,-0.5 2,-2 V 2.99999 H 27.3 L 27.2138,2.71264 C 27.0786,2.26205 26.5806,1.91387 26,1.82348 Z"
     fill="url(#paint0_linear_414_7)"
     id="path1"
     style="fill:url(#paint0_linear_414_7)" />
  <path
     d="M 2.61602,26 H 4.61608 18.6162 21.616 c 0.5523,0 1,0.4477 1,1 v 6 c 0,1.1046 -0.8954,2 -2,2 H 3.61602 c -1.10456,0 -2,-0.8954 -2,-2 v -6 c 0,-0.5523 0.44769,-1 1,-1 z"
     fill="url(#paint1_linear_414_7)"
     id="path2"
     style="fill:url(#paint1_linear_414_7)" />
  <path
     d="M 5.00005,24 H 19.0002 c 14.8133,0 -30.6516,0 -14.00015,0 z"
     fill="url(#paint2_linear_414_7)"
     id="path3"
     style="fill:url(#paint2_linear_414_7)" />
  <path
     d="m 36.9132,11 h -6.5 V 3.00001 h 6.5 c 0,0 1.25,1 2,1 V 10 c -0.75,0 -2,1 -2,1 z"
     fill="url(#paint3_linear_414_7)"
     id="path4"
     style="fill:url(#paint3_linear_414_7)" />
  <defs
     id="defs11">
    <linearGradient
       id="paint0_linear_414_7"
       x1="38"
       y1="-2.69842"
       x2="-3.49998"
       y2="37.801601"
       gradientUnits="userSpaceOnUse">
      <stop
         stop-color="#F97316"
         id="stop4" />
      <stop
         offset="1"
         stop-color="#DC2626"
         id="stop5" />
    </linearGradient>
    <linearGradient
       id="paint1_linear_414_7"
       x1="38"
       y1="-2.69842"
       x2="-3.49998"
       y2="37.801601"
       gradientUnits="userSpaceOnUse">
      <stop
         stop-color="#F97316"
         id="stop6" />
      <stop
         offset="1"
         stop-color="#DC2626"
         id="stop7" />
    </linearGradient>
    <linearGradient
       id="paint2_linear_414_7"
       x1="38"
       y1="-2.69842"
       x2="-3.49998"
       y2="37.801601"
       gradientUnits="userSpaceOnUse">
      <stop
         stop-color="#F97316"
         id="stop8" />
      <stop
         offset="1"
         stop-color="#DC2626"
         id="stop9" />
    </linearGradient>
    <linearGradient
       id="paint3_linear_414_7"
       x1="38"
       y1="-2.69842"
       x2="-3.49998"
       y2="37.801601"
       gradientUnits="userSpaceOnUse">
      <stop
         stop-color="#F97316"
         id="stop10" />
      <stop
         offset="1"
         stop-color="#DC2626"
         id="stop11" />
    </linearGradient>
  </defs>
</svg>
