<svg width="39" height="35" viewBox="0 0 39 35" fill="none" xmlns="http://www.w3.org/2000/svg">
<path d="M26 1.12506C17.5 -0.198431 5.51751 -1.07099 1.61602 2.77218C-0.652842 5.00717 -0.11793 8.54186 0.72698 11.1087C1.40044 13.1545 3.43285 14.3016 5.58672 14.3016H9.37475L7.99432 20.3017C7.91106 20.3036 6.95537 20.3461 5.99999 21.3016C5.00005 22.3016 5.00005 23.3016 5.00005 23.3016C-11.6514 23.3016 33.8135 23.3016 19.0002 23.3016L19.4441 20.6381L20.3677 17.3016H23C24.1045 17.3016 25 13.4062 25 12.3016H26.5C28.5 12.3016 28.5 11.8016 28.5 10.3016V2.30157H27.3L27.2138 2.01422C27.0786 1.56362 26.5806 1.21545 26 1.12506Z" fill="#1E1E1E"/>
<path d="M2.61602 25.3016H4.61608H18.6162H21.616C22.1683 25.3016 22.616 25.7493 22.616 26.3016V32.3016C22.616 33.4062 21.7206 34.3016 20.616 34.3016H3.61602C2.51146 34.3016 1.61602 33.4062 1.61602 32.3016V26.3016C1.61602 25.7493 2.06371 25.3016 2.61602 25.3016Z" fill="#1E1E1E"/>
<path d="M5.00005 23.3016H19.0002C33.8135 23.3016 -11.6514 23.3016 5.00005 23.3016Z" fill="#1E1E1E"/>
<path d="M36.9132 10.3016L30.4132 10.3016V2.30158H36.9132C36.9132 2.30158 38.1632 3.30159 38.9132 3.30159V9.30159C38.1632 9.30159 36.9132 10.3016 36.9132 10.3016Z" fill="#1E1E1E"/>
</svg>
